<svg width="291" height="291" viewBox="0 0 291 291" fill="none" xmlns="http://www.w3.org/2000/svg">
<path d="M145.5 4.54688C67.6348 4.54688 4.54688 67.6348 4.54688 145.5C4.54688 223.365 67.6348 286.453 145.5 286.453C223.365 286.453 286.453 223.365 286.453 145.5C286.453 67.6348 223.365 4.54688 145.5 4.54688ZM145.5 259.172C82.6963 259.172 31.8281 208.304 31.8281 145.5C31.8281 82.6963 82.6963 31.8281 145.5 31.8281C208.304 31.8281 259.172 82.6963 259.172 145.5C259.172 208.304 208.304 259.172 145.5 259.172ZM180.625 199.835L132.371 164.767C130.609 163.46 129.586 161.414 129.586 159.254V65.9297C129.586 62.1785 132.655 59.1094 136.406 59.1094H154.594C158.345 59.1094 161.414 62.1785 161.414 65.9297V146.466L199.38 174.088C202.45 176.305 203.075 180.568 200.858 183.637L190.173 198.357C187.956 201.37 183.694 202.052 180.625 199.835Z" fill="#262626"/>
</svg>
